<svg enable-background="new 0 0 24 24" height="512" viewBox="0 0 24 24" width="512" xmlns="http://www.w3.org/2000/svg">
<path fill="#c3aed6" 
d="m9.5 24c-.064 0-.129-.012-.191-.038-.187-.077-.309-.26-.309-.462v-2.5h-1.5c-1.378 0-2.5-1.122-2.5-2.5v-4c0-.276.224-.5.5-.5s.5.224.5.5v4c0 .827.673 1.5 1.5 1.5h2c.276 0 .5.224.5.5v1.793l2.146-2.146c.094-.094.221-.147.354-.147h9c.827 0 1.5-.673 1.5-1.5v-8c0-.827-.673-1.5-1.5-1.5h-1c-.276 0-.5-.224-.5-.5s.224-.5.5-.5h1c1.378 0 2.5 1.122 2.5 2.5v8c0 1.378-1.122 2.5-2.5 2.5h-8.793l-2.854 2.854c-.095.095-.223.146-.353.146z"/><path d="m17.079 13h-15.158c-1.059 0-1.921-.897-1.921-2v-9c0-1.103.862-2 1.921-2h15.158c1.059 0 1.921.897 1.921 2v9c0 1.103-.862 2-1.921 2zm-15.158-12c-.508 0-.921.449-.921 1v9c0 .551.413 1 .921 1h15.158c.508 0 .921-.449.921-1v-9c0-.551-.413-1-.921-1z"/><path d="m9.5 7.995c-.33 0-.659-.08-.959-.24l-8.276-4.414c-.244-.13-.336-.433-.206-.677.13-.243.433-.335.677-.206l8.276 4.414c.306.163.672.163.978 0l8.276-4.414c.244-.128.546-.037.677.206.13.244.038.546-.206.677l-8.276 4.414c-.302.16-.631.24-.961.24z"/></svg>